<svg width="100" height="100" viewBox="0 0 100 100" fill="none" xmlns="http://www.w3.org/2000/svg">
<rect width="100" height="100" fill="white"/>
<path d="M17.4023 23.8867C17.2851 24.043 17.1679 25.4492 17.1484 27.5586L17.0898 30.957L11.4453 31.0156C7.53904 31.0352 5.7031 31.1328 5.52732 31.2891C5.09763 31.6406 5.29295 32.6758 5.85935 32.9492C6.46482 33.2617 26.2304 33.3203 27.0508 33.0078C27.6758 32.7734 27.8515 32.3438 27.6172 31.6602L27.4414 31.1524L23.3398 31.0547L19.2383 30.957V28.3203V25.6836L42.0508 25.625L64.8437 25.5859V45.1172V64.6484H53.2617H41.6992L41.2304 63.7695C40.6054 62.5977 38.7109 60.8203 37.4609 60.2539C35.9179 59.5508 34.0429 59.2969 32.5586 59.5508C29.9804 60 27.4219 61.7774 26.3476 63.9063L25.9765 64.6484H22.5586H19.1406L19.1797 60L19.2383 55.3711L22.832 55.3125C25.0781 55.293 26.5234 55.1758 26.6992 55.0586C27.0703 54.7461 27.0117 53.8281 26.6015 53.457C26.2695 53.1641 25.3906 53.125 17.9492 53.125C13.3984 53.125 9.57029 53.2031 9.4531 53.2813C8.98435 53.5938 8.80857 54.2188 9.04295 54.707L9.29685 55.1758L13.2422 55.2344L17.1875 55.2734V59.9414V64.6094L16.5625 64.7461C14.8437 65.1172 13.75 66.543 13.9062 68.2031C14.0234 69.2774 14.4531 70 15.4297 70.6641C16.0547 71.0742 16.2109 71.0938 20.9765 71.0938H25.8789L26.3672 72.0117C27.0898 73.3789 28.6914 74.8633 30.2148 75.625C31.4844 76.25 31.6406 76.2695 33.789 76.2695C35.8984 76.2695 36.1133 76.2305 37.3437 75.6445C38.9258 74.9024 40.2148 73.75 41.1523 72.2266L41.8554 71.0938H56.0547H70.2734L70.8594 72.1094C71.6406 73.5156 73.1836 74.9024 74.7656 75.6445C75.8203 76.1328 76.3867 76.2695 77.7734 76.3281C81.25 76.5039 84.1406 74.9219 85.6445 72.0117L86.1328 71.0938H89.2773C92.8711 71.0938 93.457 70.9375 94.2578 69.7266C94.6094 69.1992 94.7461 68.7109 94.7656 68.0078C94.7656 66.4063 93.9062 65.2539 92.3828 64.8438L91.6406 64.6484L91.5429 57.5586C91.4453 50.1953 91.3867 49.5117 90.4687 46.875C88.6523 41.6797 84.1015 37.1289 78.9062 35.3125C76.6406 34.5313 75.332 34.3555 71.1523 34.2383L66.9922 34.1406V29.1211C66.9922 25.4688 66.9336 24.043 66.7578 23.8672C66.3867 23.4961 17.7148 23.5352 17.4023 23.8867ZM75.4883 36.6211C82.4219 37.832 87.9492 43.3594 89.1601 50.293C89.375 51.582 89.4531 53.5352 89.4531 58.3203V64.6484H87.832H86.2109L85.3906 63.3789C84.414 61.9141 83.3203 60.957 81.7969 60.2539C79.3554 59.1406 76.875 59.1797 74.4531 60.3711C73.0273 61.0742 71.3281 62.6758 70.8008 63.8477L70.4492 64.6484H68.7109H66.9922V50.4883V36.3281H70.3906C72.539 36.3281 74.3945 36.4453 75.4883 36.6211ZM36.4062 62.0899C37.6367 62.6367 38.9648 63.9258 39.5898 65.2149C40.0586 66.1524 40.1367 66.543 40.1367 67.9688C40.1172 69.375 40.039 69.7852 39.5898 70.6445C38.5351 72.6953 37.0703 73.8086 34.9023 74.1992C32.7344 74.5899 30.7031 73.8672 29.1211 72.1484C27.9883 70.8984 27.5195 69.668 27.5195 67.9102C27.5195 65.0195 29.2187 62.7344 32.0898 61.7969C33.164 61.4453 35.2734 61.582 36.4062 62.0899ZM80.8789 62.1484C82.1484 62.7344 83.2617 63.8086 83.9453 65.1367C84.414 65.9961 84.4726 66.3477 84.4726 67.9688C84.4726 69.5313 84.3945 69.9609 84.0234 70.6641C82.7929 72.9883 80.7031 74.2578 78.1836 74.2578C76.9531 74.2578 76.5429 74.1602 75.4883 73.6524C73.9648 72.8906 72.832 71.6602 72.2461 70.1367C71.6797 68.6328 71.7969 66.543 72.5 65.1367C73.0078 64.1406 74.3164 62.7734 75.2148 62.2852C76.8945 61.3867 79.1211 61.3477 80.8789 62.1484ZM25.3906 67.9688V69.1406H21.25C18.3008 69.1406 16.9531 69.0625 16.6015 68.8867C15.9961 68.5742 15.8398 67.6953 16.3281 67.168C16.6406 66.8164 16.9726 66.7969 21.0351 66.7969H25.3906V67.9688ZM69.7265 67.9688V69.1406H56.0547H42.3828V67.9688V66.7969H56.0547H69.7265V67.9688ZM92.2265 67.0313C92.8125 67.5 92.832 68.125 92.3047 68.6524C91.8359 69.1211 91.7383 69.1406 89.2578 69.1406H86.7187V67.9688V66.7969H89.3164C91.0937 66.7969 92.0117 66.875 92.2265 67.0313Z" fill="#1763A2"/>
<path d="M69.9609 39.2969C69.6289 39.6289 69.6289 53.7305 69.9609 54.0625C70.1367 54.2383 72.2266 54.2969 78.1445 54.2969C85.1172 54.2969 86.1523 54.2578 86.4062 53.9844C86.8359 53.5547 86.8164 51.582 86.3281 49.7266C85.0195 44.6094 80.8984 40.5664 75.7422 39.3555C74.2188 39.0039 70.293 38.9648 69.9609 39.2969ZM75.293 41.4453C78.5156 42.1094 81.8555 44.7461 83.3594 47.8516C84.082 49.3359 84.7852 51.8164 84.5508 52.0312C84.5117 52.0703 81.6406 52.1484 78.1836 52.1875L71.875 52.2852V46.6406V41.0156L73.1055 41.1328C73.7695 41.1914 74.7656 41.3281 75.293 41.4453Z" fill="#1763A2"/>
<path d="M32.2851 64.8242C30.1562 65.8203 29.7265 68.5547 31.4062 70.332C33.0859 72.0898 35.8203 71.6797 36.914 69.5117C38.4179 66.582 35.3125 63.418 32.2851 64.8242ZM34.7656 66.9922C35.5664 67.793 34.9609 69.3359 33.8476 69.3359C33.2812 69.3359 32.4218 68.5156 32.4218 68.0078C32.4218 66.8555 33.9648 66.1914 34.7656 66.9922Z" fill="#1763A2"/>
<path d="M76.9531 64.668C76.3281 64.9219 75.4297 65.7618 75.0781 66.4453C74.7266 67.1094 74.7266 68.5743 75.0781 69.3946C75.6055 70.7032 77.3828 71.6602 78.7695 71.4063C79.6484 71.25 80.6445 70.5664 81.1914 69.7461C81.8359 68.8086 81.8164 67.2266 81.1523 66.0938C80.3516 64.7461 78.418 64.0821 76.9531 64.668ZM79.3555 67.2071C80.0781 68.2032 79.082 69.5703 77.8516 69.2578C77.2852 69.1211 76.7187 68.125 76.9141 67.5977C77.3047 66.4844 78.6523 66.2696 79.3555 67.2071Z" fill="#1763A2"/>
<path d="M30.6836 31.3281C30.5469 31.4844 30.4687 31.8555 30.5078 32.168C30.6055 33.0469 31.1914 33.2031 34.4726 33.2031C37.7539 33.2031 38.3398 33.0469 38.4375 32.168C38.5547 31.1133 38.3594 31.0547 34.4726 31.0547C31.6015 31.0547 30.8594 31.1133 30.6836 31.3281Z" fill="#1763A2"/>
<path d="M9.60933 38.7109C9.31636 39.0039 9.31636 39.5508 9.57027 40.0586C9.76558 40.4102 10.0195 40.4297 13.9257 40.4297C16.8945 40.4297 18.1445 40.3711 18.3203 40.1953C18.6132 39.9023 18.6132 39.0039 18.3203 38.7109C17.9882 38.3789 9.94136 38.3789 9.60933 38.7109Z" fill="#1763A2"/>
<path d="M21.5234 38.7109C21.2305 39.0039 21.2305 39.9023 21.5234 40.1953C21.6992 40.3711 24.2773 40.4297 31.9336 40.4297C41.5625 40.4297 42.1484 40.4102 42.4414 40.0781C42.8516 39.6289 42.8711 39.1797 42.4609 38.7891C42.1875 38.5156 40.9766 38.4766 31.9531 38.4766C24.2773 38.4766 21.6992 38.5352 21.5234 38.7109Z" fill="#1763A2"/>
<path d="M5.7031 46.0156C5.23435 46.3477 5.11717 47.2266 5.50779 47.6172C5.66404 47.7734 6.6992 47.8516 8.8867 47.8516C11.7773 47.8516 12.0703 47.8125 12.4023 47.4609C12.8515 46.9531 12.6562 46.1328 11.9922 45.8984C11.7187 45.7812 10.2929 45.7031 8.8281 45.7031C6.71873 45.7031 6.05467 45.7617 5.7031 46.0156Z" fill="#1763A2"/>
<path d="M15.8789 45.8984C15.2929 46.1328 15.1367 46.7969 15.5078 47.3633L15.8203 47.8516H26.914C35.2734 47.8516 38.0664 47.793 38.2421 47.6172C38.6328 47.2266 38.5156 46.3477 38.0468 46.0156C37.6562 45.7422 36.289 45.7031 26.9531 45.7227C21.0937 45.7227 16.1132 45.8008 15.8789 45.8984Z" fill="#1763A2"/>
<path d="M30.1172 53.4375C29.6093 53.7891 29.5508 54.5312 30 54.9609C30.2539 55.2344 31.0742 55.2734 35.9375 55.2734C42.0508 55.2734 42.1875 55.2539 42.1875 54.1992C42.1875 53.2031 41.7773 53.125 35.9375 53.125C31.3867 53.125 30.4883 53.1641 30.1172 53.4375Z" fill="#1763A2"/>
</svg>
