<svg width="100" height="100" viewBox="0 0 100 100" fill="none" xmlns="http://www.w3.org/2000/svg">
<rect width="100" height="100" fill="white"/>
<path d="M26.9727 3.53516C23.5547 4.53125 22.2461 8.82812 24.5508 11.5039C25.6641 12.832 26.8555 13.2812 29.1602 13.2812H31.0547L38.8672 18.9648L46.6797 24.6289L44.4727 28.9648L42.2852 33.3008L40.8203 33.3594C39.668 33.3984 39.2773 33.4961 38.9258 33.8281C38.3203 34.3945 34.8828 44.668 35.0781 45.3906C35.2734 46.2305 36.0352 46.6797 37.2266 46.6797H38.2812V53.5938V60.5078L37.2461 61.2891C36.6992 61.7188 35.9766 62.3438 35.6641 62.6758L35.0781 63.2812H30.918H26.7578V61.9141C26.7578 59.1406 26.1133 57.7344 24.5117 57.0117C23.8477 56.6992 23.2031 56.6406 20.0195 56.6406C15.8789 56.6406 15.1953 56.7969 14.1992 57.9883C13.5156 58.8086 13.2812 59.7266 13.2812 61.6602V63.2617L7.96875 63.3203C2.8125 63.3789 2.61719 63.3984 1.85547 63.8281C1.42578 64.082 0.839844 64.5898 0.585938 64.9805L0.0976562 65.7031V76.6602V87.6172L0.585938 88.3398C0.878906 88.7695 1.48438 89.2773 2.03125 89.5508C2.98828 90.0391 3.06641 90.0391 8.125 90.0391H13.2422L13.3203 92.0508C13.3984 94.3164 13.6523 94.9609 14.9023 95.9766L15.6641 96.582L19.4922 96.6406C23.6523 96.7188 24.3945 96.6016 25.3906 95.7812C26.3477 94.9609 26.6016 94.2773 26.7188 92.0508L26.8164 90.0391H30.8984H35L36.1914 91.1328C39.4141 94.0625 42.9492 95.7617 47.0703 96.3867C49.3945 96.7578 50.6055 96.7578 52.9297 96.3867C57.0508 95.7617 60.5859 94.0625 63.8086 91.1328L65 90.0391H69.1016H73.1836L73.2812 92.0508C73.3984 94.2773 73.6523 94.9609 74.6094 95.7812C75.6055 96.6016 76.3477 96.7188 80.5078 96.6406L84.3359 96.582L85.0977 95.9766C86.3477 94.9609 86.6016 94.3164 86.6797 92.0508L86.7578 90.0391H91.875C96.9336 90.0391 97.0117 90.0391 97.9688 89.5508C98.5156 89.2773 99.1211 88.7695 99.4141 88.3398L99.9023 87.6172V76.6602V65.7031L99.4141 64.9805C99.1602 64.5898 98.5742 64.082 98.1445 63.8281C97.3828 63.3984 97.1875 63.3789 92.0508 63.3203L86.7188 63.2617V61.6602C86.7188 59.7266 86.4844 58.8086 85.8008 57.9883C84.8047 56.7969 84.1211 56.6406 79.9805 56.6406C76.7969 56.6406 76.1523 56.6992 75.4883 57.0117C73.8867 57.7344 73.2422 59.1406 73.2422 61.9141V63.2812H69.082H64.9219L64.3359 62.6758C64.0234 62.3438 63.3008 61.7188 62.7539 61.2891L61.7188 60.5078V53.5938V46.6797H62.7734C63.9648 46.6797 64.7266 46.2305 64.9219 45.3906C65.1172 44.668 61.6797 34.3945 61.0742 33.8281C60.7227 33.4961 60.332 33.3984 59.1797 33.3594L57.7148 33.3008L55.5273 28.9648L53.3203 24.6289L61.1328 18.9648L68.9453 13.2812H70.8398C72.8906 13.2812 74.0039 12.9297 74.9805 12.0508C77.8516 9.39453 76.6602 4.49219 72.9102 3.53516C71.8359 3.26172 27.9297 3.26172 26.9727 3.53516ZM72.4414 6.93359C73.3984 7.42188 73.5547 8.69141 72.7539 9.47266L72.2852 9.96094H50H27.7148L27.2461 9.47266C26.4258 8.67188 26.6211 7.42188 27.6367 6.875C27.9102 6.71875 34.4531 6.66016 49.9609 6.64062C68.8281 6.64062 71.9727 6.67969 72.4414 6.93359ZM48.2422 17.4805V21.6602L42.7344 17.6562C39.6875 15.4492 37.1289 13.5547 37.0312 13.457C36.9141 13.3594 39.043 13.2812 42.5391 13.2812H48.2422V17.4805ZM62.9688 13.457C62.8711 13.5547 60.3125 15.4492 57.2852 17.6562L51.7578 21.6602V17.4805V13.2812H57.4609C60.957 13.2812 63.0859 13.3594 62.9688 13.457ZM52.3047 29.9805C53.1836 31.7578 53.9062 33.2422 53.9062 33.3008C53.9062 33.3594 52.1484 33.3984 50 33.3984C47.8516 33.3984 46.0938 33.3594 46.0938 33.3008C46.0938 33.2422 46.8164 31.7578 47.6953 29.9805L49.3164 26.7578H50H50.6836L52.3047 29.9805ZM59.9023 39.9414C60.4688 41.6602 60.9375 43.125 60.9375 43.2031C60.9375 43.3008 56.0156 43.3594 50 43.3594C43.9844 43.3594 39.0625 43.2812 39.0625 43.2031C39.0625 43.0859 40.7812 37.832 41.1133 36.9531C41.1719 36.7578 43.0664 36.7188 50.0195 36.7578L58.8477 36.8164L59.9023 39.9414ZM58.3984 52.5586C58.3984 58.0859 58.3789 58.4375 58.0664 58.3398C57.8711 58.2617 57.0508 57.9883 56.25 57.7148C54.5117 57.1094 51.7578 56.6406 50 56.6406C48.2422 56.6406 45.4883 57.1094 43.75 57.7148C42.9492 57.9883 42.1289 58.2617 41.9531 58.3398C41.6211 58.4375 41.6016 58.0859 41.6016 52.5586V46.6797H50H58.3984V52.5586ZM23.2422 76.6602V93.3594L19.9805 93.3203L16.6992 93.2617L16.6406 76.8555C16.6211 67.832 16.6406 60.332 16.6992 60.1953C16.7578 60.0195 17.6172 59.9609 20.0195 59.9609H23.2422V76.6602ZM52.2461 60.1562C57.6562 60.9375 62.4609 64.3945 64.8438 69.2383C66.25 72.1094 66.5039 73.1836 66.5039 76.6602C66.5039 79.1406 66.4258 79.8242 66.0547 81.1328C64.4141 86.8164 59.8633 91.2695 54.1016 92.793C51.7578 93.418 48.2422 93.418 45.8984 92.793C40.1367 91.2695 35.5859 86.8164 33.9453 81.1328C33.5742 79.8242 33.4961 79.1406 33.4961 76.6602C33.4961 73.1641 33.75 72.1094 35.1758 69.1797C36.6992 66.1133 39.6484 63.1641 42.6562 61.7383C45.918 60.1953 48.9844 59.707 52.2461 60.1562ZM83.3008 76.6602V93.2617L80.0391 93.3203L76.7578 93.3594V76.6602V59.9609L80.0391 60L83.3008 60.0586V76.6602ZM13.2812 76.6602V86.7188L8.33984 86.6797L3.41797 86.6211L3.35938 76.8555C3.33984 71.4844 3.35938 66.9727 3.41797 66.8359C3.47656 66.6602 4.66797 66.6016 8.39844 66.6016H13.2812V76.6602ZM32.6172 66.6797C32.6172 66.7188 32.2656 67.5 31.8359 68.418C30.6641 70.8984 30.2539 72.7148 30.1367 75.7422C29.9805 79.5508 30.5078 82.2852 31.9531 85.2344C32.3242 85.957 32.6172 86.6016 32.6172 86.6406C32.6172 86.6797 31.3086 86.7188 29.6875 86.7188H26.7578V76.6602V66.6016H29.6875C31.3086 66.6016 32.6172 66.6406 32.6172 66.6797ZM73.2422 76.6602V86.7188H70.3125C68.7109 86.7188 67.3828 86.6797 67.3828 86.6406C67.3828 86.6016 67.6758 85.957 68.0469 85.2344C69.4922 82.2852 70.0195 79.5508 69.8633 75.7422C69.7461 72.7148 69.3359 70.8984 68.1641 68.418C67.7344 67.5 67.3828 66.7188 67.3828 66.6797C67.3828 66.6406 68.7109 66.6016 70.3125 66.6016H73.2422V76.6602ZM96.582 76.6602V86.6211L91.6602 86.6797L86.7188 86.7188V76.6602V66.6016L91.6602 66.6406L96.582 66.6992V76.6602Z" fill="#1763A2"/>
<path d="M49.2969 63.5546C48.3008 63.9843 48.0859 65.4101 48.8867 66.1718C49.9414 67.1679 51.5625 66.4257 51.5625 64.9804C51.5625 64.2968 51.0352 63.4765 50.6055 63.4765C50.5078 63.4765 50.3125 63.4374 50.1562 63.3789C50.0195 63.3398 49.6289 63.4179 49.2969 63.5546Z" fill="#1763A2"/>
<path d="M40.6836 67.2266C40.0781 67.8907 39.9805 68.4571 40.332 69.1407C40.7227 69.9024 41.4648 70.1954 42.2461 69.9219C43.0078 69.668 43.3398 69.1993 43.3594 68.3985C43.3594 67.0118 41.582 66.25 40.6836 67.2266Z" fill="#1763A2"/>
<path d="M57.1289 67.2851C56.582 67.8125 56.4844 68.8281 56.9141 69.3945C57.3047 69.9023 58.2422 70.1758 58.8477 69.9414C59.4727 69.707 60.0195 68.6914 59.8437 68.1055C59.4531 66.7969 58.0273 66.3672 57.1289 67.2851Z" fill="#1763A2"/>
<path d="M37.5977 75.2344C36.582 75.8203 36.4063 76.9922 37.2266 77.8125C37.8711 78.457 38.6719 78.4766 39.375 77.8516C40.8008 76.6211 39.2188 74.2969 37.5977 75.2344Z" fill="#1763A2"/>
<path d="M60.625 75.4688C59.5117 76.4062 60.2344 78.3203 61.6992 78.3203C62.8711 78.3203 63.7305 76.6602 63.0273 75.7617C62.3828 74.9219 61.3867 74.8047 60.625 75.4688Z" fill="#1763A2"/>
<path d="M40.9961 83.4766C40 84.043 39.8438 85.1758 40.6836 86.0743C41.6016 87.0703 43.3594 86.3086 43.3594 84.9024C43.3594 83.7305 42.0117 82.9297 40.9961 83.4766Z" fill="#1763A2"/>
<path d="M57.8125 83.3399C56.6211 83.7696 56.2695 85.1953 57.1289 86.0352C58.0273 86.9532 59.4531 86.5235 59.8437 85.2149C60.0195 84.6485 59.5312 83.7305 58.8867 83.4375C58.3398 83.1836 58.2617 83.1836 57.8125 83.3399Z" fill="#1763A2"/>
<path d="M48.9453 87.1288C48.3984 87.5585 48.2422 88.5351 48.6328 89.2382C48.9453 89.8437 49.9024 90.1367 50.5859 89.8437C51.3086 89.5507 51.5625 89.121 51.5625 88.2031C51.5625 87.4023 50.8399 86.7187 50 86.7187C49.707 86.7187 49.2383 86.8945 48.9453 87.1288Z" fill="#1763A2"/>
</svg>
