<svg width="100" height="100" viewBox="0 0 100 100" fill="none" xmlns="http://www.w3.org/2000/svg">
<path d="M67.7539 2.16795C57.3633 2.87108 48.0273 9.08202 43.2617 18.457C42.0703 20.8008 40.7226 24.7851 40.8984 25.4492C41.0351 26.0547 41.8359 26.4258 42.4609 26.1719C42.8515 26.0351 43.0469 25.6055 43.6133 23.789C45.9375 16.4648 50.8008 10.7226 57.6172 7.3242C66.2305 2.98827 76.8359 3.5742 84.8633 8.80858C90.9765 12.7734 95 18.4765 96.8359 25.7812C97.3242 27.6758 97.3633 28.1445 97.3633 31.8359C97.3633 35.0195 97.2851 36.1719 96.9922 37.5C95 46.6015 89.0234 53.8476 80.5664 57.4219C78.3203 58.3789 77.9883 58.7695 78.5156 59.7656C78.9648 60.6055 80.1367 60.3515 83.4961 58.6523C89.707 55.5273 95 49.8437 97.539 43.5547C98.457 41.289 99.1797 38.75 99.5508 36.4258C100 33.5351 99.8047 28.164 99.1601 25.3906C97.6758 19.1211 94.4531 13.7109 89.6875 9.5117C84.9609 5.35155 78.418 2.53905 72.6562 2.22655C71.7383 2.16795 70.7422 2.10936 70.4101 2.08983C70.0976 2.05077 68.8867 2.08983 67.7539 2.16795Z" fill="#1763A2"/>
<path d="M69.4336 13.125C68.8086 13.4766 68.75 13.6719 68.75 15.332V16.8945L67.4609 17.2656C63.6328 18.3594 61.5625 21.3086 61.7578 25.4492C61.8554 27.6172 62.3828 28.8672 63.9062 30.4102C65.1562 31.6797 66.8164 32.5 68.9453 32.9102C69.8633 33.0664 71.0547 33.3398 71.582 33.4961C75.8594 34.7461 77.3242 39.3945 74.4922 42.7539C72.8906 44.668 68.6133 45.2539 65.8789 43.9258C64.375 43.2031 63.4765 41.9141 62.8906 39.707C62.6562 38.7695 62.1679 38.3984 61.4258 38.5938C60.6445 38.7891 60.4492 39.3359 60.7422 40.6055C61.2695 42.9492 62.7344 44.9219 64.707 45.9766C65.5078 46.3867 66.1719 46.582 68.3203 46.9922C68.7304 47.0703 68.75 47.168 68.75 48.6328C68.75 50.3516 69.082 50.9766 69.9804 50.9766C70.8398 50.9766 71.0937 50.4297 71.0937 48.5938V46.9141L72.1289 46.6797C75.4101 45.8984 77.5976 43.5547 78.1445 40.2344C78.7109 36.875 77.0508 33.4766 74.1406 31.9922C72.9492 31.3867 71.9726 31.0938 70.0976 30.7617C67.9687 30.3906 66.875 29.9414 65.8008 28.9648C63.75 27.1094 63.4375 23.5938 65.1562 21.3477C66.3672 19.7461 69.1601 18.8867 71.8164 19.2969C74.6875 19.7461 76.0742 20.9766 76.9336 23.8086C77.4023 25.3906 77.8906 25.7031 78.8281 25.0977C79.2969 24.8047 79.3359 24.668 79.2578 23.7695C79.1601 22.5195 78.4375 20.918 77.3828 19.5898C76.3867 18.3398 74.4726 17.3242 72.4804 16.9922L71.0937 16.7578V15.1367C71.0937 13.6719 71.0547 13.4766 70.664 13.2031C70.1562 12.832 69.9609 12.832 69.4336 13.125Z" fill="#1763A2"/>
<path d="M40.7031 30.2734C39.9219 30.5273 38.9453 31.6016 38.6719 32.5586C38.5547 32.9688 38.3789 35.5469 38.2812 38.2812C38.0469 45.0195 37.4023 47.9492 35.4101 51.3477C34.0625 53.6133 30.9765 56.3477 28.6523 57.3242L27.9883 57.5977L27.7539 56.6602C27.4609 55.5273 26.6015 54.4336 25.5273 53.8477C24.707 53.418 24.6875 53.418 14.0625 53.418C3.53514 53.418 3.41795 53.418 2.6367 53.8477C2.20701 54.0625 1.62108 54.5117 1.32811 54.8242C0.1367 56.0742 0.195294 55.0391 0.195294 75.6836C0.195294 91.0742 0.234357 94.668 0.4492 95.1758C0.878888 96.1523 1.67967 96.9922 2.69529 97.5L3.61326 97.9492H14.0625H24.5117L25.5664 97.3633C26.7187 96.7383 27.6367 95.5469 27.8515 94.4141L27.9687 93.7695L29.4336 94.4531L30.8984 95.1172H47.4414H63.9844L64.9805 94.6094C66.1719 94.0234 67.2656 92.8711 67.832 91.6211C68.457 90.2734 68.418 88.3008 67.7344 86.9922L67.2265 85.9961L68.0469 85.7422C70.2344 85.0977 71.7187 83.0859 71.7383 80.7422C71.7578 79.7656 71.6406 79.2969 71.1523 78.3398L70.5664 77.1289L71.2695 76.7969C74.1797 75.4297 75.1367 71.4453 73.1836 68.8867L72.6953 68.2422L73.7305 67.3242C76.6797 64.7266 75.9961 60.2734 72.3828 58.5742L71.1914 58.0078H59.1406C52.5 58.0078 47.0703 57.9688 47.0703 57.9102C47.0703 57.8711 47.3633 57.2656 47.7344 56.6016C49.3945 53.5742 50.1953 49.8047 50.1953 44.9023C50.1953 40.4883 49.7265 38.1055 48.2031 35.0195C47.3047 33.1836 45.1758 31.0352 43.8476 30.6055C42.5195 30.1758 41.4258 30.0586 40.7031 30.2734ZM42.8906 32.3242C45.332 33.3398 47.4023 36.6797 48.0273 40.625C48.3398 42.4609 48.2812 47.4414 47.9492 49.6484C47.5 52.6562 46.4062 55.3711 44.668 57.8516C43.9648 58.8477 43.9062 59.0234 44.1015 59.4531L44.3164 59.9414L57.7539 60C70.0586 60.0586 71.25 60.0781 71.8164 60.3906C72.5976 60.8398 73.1836 61.582 73.4765 62.5391C73.9453 64.1211 72.8515 66.1719 71.289 66.6016C70.8984 66.7188 67.7539 66.7969 64.0625 66.7969C59.2187 66.7969 57.4414 66.8555 57.2656 67.0312C56.8945 67.4023 56.9726 68.3203 57.4023 68.5547C57.6367 68.6719 60.0586 68.75 63.9258 68.75C69.9609 68.75 70.0781 68.75 70.7226 69.1992C71.5234 69.7266 72.2656 71.1133 72.2656 72.0703C72.2461 73.0469 71.6406 74.2773 70.8789 74.8242L70.2148 75.293L63.1836 75.3906C59.3164 75.4492 56.0351 75.5664 55.918 75.6445C55.5859 75.8594 55.5859 76.8555 55.918 77.1094C56.0742 77.2461 58.2226 77.3438 61.9531 77.3828C67.4414 77.4414 67.7734 77.4609 68.2812 77.8516C69.2383 78.5547 69.5898 79.2188 69.6875 80.4297C69.7851 81.7578 69.3164 82.9102 68.418 83.5156C67.9101 83.8672 67.3047 83.8867 59.043 83.9844C52.6562 84.0625 50.1562 84.1406 49.9805 84.3164C49.707 84.5898 49.6875 85.5078 49.9609 85.7812C50.0781 85.8984 52.832 86.0156 57.2265 86.0742C65.2539 86.2109 65.0976 86.1719 65.9765 87.8906C66.7773 89.4531 66.25 91.3477 64.6875 92.5391L64.0039 93.0664L47.6758 93.125L31.3476 93.1836L29.6484 92.3438L27.9297 91.5234V75.6445V59.7656L29.1797 59.1992C33.0273 57.4609 35.8984 54.7266 37.7148 51.1328C39.5117 47.5781 40 45.0391 40.2344 38.3789C40.3125 35.6836 40.4883 33.2617 40.5859 32.9688C40.957 32.0312 41.7187 31.8359 42.8906 32.3242ZM13.0859 65.4883C13.0859 74.4141 13.125 75.7422 13.3984 76.1328C13.7305 76.6211 14.4922 76.6992 14.8242 76.3086C14.9609 76.1133 15.0586 72.9492 15.0781 65.7031L15.1367 55.3711L19.4726 55.3125C24.3555 55.2539 24.9023 55.3711 25.5859 56.4844C25.9765 57.1094 25.9765 57.4219 25.9765 75.5469C25.9765 95.8789 26.0351 94.8438 24.7461 95.6055C24.1406 95.9766 23.6914 95.9961 13.9648 95.9961H3.80858L3.20311 95.5664C1.99217 94.707 2.05076 95.5664 2.05076 75.4492C2.05076 57.1484 2.05076 57.0508 2.46092 56.5039C3.30076 55.3711 3.74998 55.2734 8.65233 55.2734H13.0859V65.4883Z" fill="#1763A2"/>
<path d="M17.793 85.5469C14.6094 86.3086 14.1016 91.25 17.0703 92.5977C19.3164 93.6133 21.7773 92.5391 22.3633 90.2735C22.9297 88.086 21.8945 86.1524 19.8242 85.5664C18.9453 85.332 18.7305 85.332 17.793 85.5469ZM19.6094 87.5781C20.8008 88.0664 20.9961 89.8242 19.9805 90.625C19.2383 91.211 18.2617 91.1328 17.5586 90.4492C16.6992 89.5703 16.8555 88.1836 17.9101 87.6172C18.5937 87.2461 18.8086 87.2461 19.6094 87.5781Z" fill="#1763A2"/>
</svg>
