<svg width="100" height="100" viewBox="0 0 100 100" fill="none" xmlns="http://www.w3.org/2000/svg">
<path d="M57.1289 1.89452C56.1132 2.26562 55.8007 2.46093 53.2617 4.33593C51.582 5.5664 51.5429 5.58593 48.0273 5.83984C45.3515 6.03515 44.4335 6.34765 43.1054 7.4414C41.9921 8.35937 41.4648 9.47265 40.7226 12.4219C40.3515 13.8867 39.8828 15.2734 39.707 15.4687C39.5312 15.6641 38.4765 16.7383 37.3828 17.832C35.1171 20.1172 34.6875 20.9766 34.707 23.2812C34.707 24.4922 34.8046 24.8047 36.0351 27.3437L37.3632 30.0781L37.1875 31.7969C37.0898 32.7344 37.0117 34.375 37.0117 35.4492C37.0117 37.2461 37.0507 37.4805 37.5976 38.457C38.3593 39.8242 39.5117 40.8203 41.1523 41.5039C41.875 41.7969 42.5585 42.1094 42.6367 42.1875C42.7343 42.2656 41.582 44.9023 40.1171 48.0664C37.0898 54.5508 36.9921 54.9414 38.0468 55.8789C38.8281 56.5625 39.121 56.582 42.4804 55.957C43.8867 55.7031 45.0781 55.5664 45.1562 55.625C45.2148 55.7031 45.8593 56.7773 46.582 58.0078C47.3046 59.2383 48.0859 60.4687 48.3593 60.7422C48.9843 61.3867 50.1757 61.4062 50.8398 60.7812C51.1132 60.5273 52.5 57.8125 53.9257 54.7461C56.3867 49.4531 56.5625 49.1406 57.2265 48.8672C58.3398 48.3984 59.3164 48.3594 60.5078 48.7305L61.621 49.0625L64.2382 54.6875C65.664 57.793 67.0703 60.5273 67.3242 60.7812C67.9296 61.3476 69.121 61.3867 69.7265 60.8398C69.9609 60.625 70.8203 59.3164 71.621 57.9492C72.4414 56.582 73.2031 55.4883 73.3203 55.5273C73.4375 55.5664 74.7656 55.8203 76.289 56.0547C78.5937 56.4453 79.121 56.4844 79.6093 56.2891C80.2539 56.0156 80.8593 55.1562 80.8593 54.5117C80.8593 54.2969 79.6289 51.4648 78.125 48.2226C76.621 44.9805 75.4101 42.3047 75.4296 42.2851C75.4687 42.2461 76.25 41.875 77.1679 41.4258C79.0625 40.5273 80.039 39.6094 80.7812 38.0078C81.3281 36.8359 81.3867 35.4687 81.0156 32.207L80.7812 30.1172L82.1093 27.3633C83.3398 24.8242 83.457 24.4922 83.4765 23.2812C83.496 20.957 83.0859 20.1758 80.4296 17.4609L78.125 15.1172L77.4804 12.4609C76.7578 9.55077 76.1718 8.35937 75.0585 7.4414C73.6718 6.30859 72.832 6.03515 69.6093 5.78124C66.3085 5.5078 66.5429 5.58593 64.0039 3.67187C63.164 3.02734 62.0703 2.32421 61.5625 2.10937C60.2929 1.54296 58.3789 1.46484 57.1289 1.89452ZM60.2343 4.96093C60.6054 5.11718 61.7187 5.85937 62.7343 6.62109C63.75 7.3828 64.9218 8.14452 65.332 8.3203C65.8203 8.51562 67.246 8.73046 69.1015 8.88671C73.2421 9.19921 73.496 9.43359 74.4921 13.418C74.8437 14.8242 75.3515 16.3281 75.6445 16.8359C75.9375 17.3437 76.914 18.4375 77.832 19.2773C79.6875 20.9766 80.1757 21.6211 80.371 22.7148C80.5078 23.3594 80.3515 23.7695 79.1796 26.2305C77.8515 28.9453 77.832 29.0234 77.832 30.5664C77.832 31.4258 77.9101 32.9687 78.0078 34.0039C78.1054 35.0391 78.125 36.1133 78.0468 36.4062C77.8125 37.3437 76.8164 38.2226 75.2343 38.8672C71.582 40.3906 70.9179 40.918 69.082 43.75C66.9921 46.9726 66.3671 47.1875 62.3437 46.0156C61.0156 45.625 59.5507 45.3125 59.082 45.3125C58.6132 45.3125 57.1875 45.625 55.8789 45.9961C51.875 47.168 51.289 46.9726 49.1796 43.8476C47.3046 41.0547 46.4453 40.332 43.6914 39.1797C41.3085 38.1836 40.371 37.4609 40.1171 36.4062C40.039 36.1328 40.0585 35.0976 40.1562 34.1016C40.2539 33.125 40.332 31.582 40.332 30.6641C40.332 29.0039 40.332 28.9648 39.0625 26.3867C38.0273 24.2578 37.7929 23.6328 37.832 22.9101C37.871 21.7773 38.1835 21.3476 40.371 19.2578C42.5585 17.1875 42.9492 16.4844 43.7109 13.2812C44.6289 9.45312 44.9414 9.19921 49.0625 8.88671C50.9179 8.73046 52.3437 8.51562 52.832 8.3203C53.2421 8.14452 54.414 7.3828 55.4296 6.62109C58.0468 4.64843 58.8476 4.37499 60.2343 4.96093ZM46.7578 45.8984C48.4375 48.4766 49.7851 49.5117 51.7773 49.7461C52.3046 49.8047 52.7343 49.8828 52.7343 49.9023C52.7343 50.1367 49.6093 56.4844 49.4921 56.4844C49.3945 56.5039 48.8281 55.6445 48.2226 54.5898C46.7578 52.0508 46.7187 52.0312 43.8281 52.5586C42.5781 52.7734 41.5234 52.9101 41.4843 52.8711C41.3867 52.7734 45.3515 44.1406 45.5078 44.1406C45.5664 44.1406 46.1328 44.9414 46.7578 45.8984ZM74.7851 48.457C75.8789 50.8203 76.7382 52.8125 76.6992 52.8711C76.6406 52.9101 75.5859 52.7734 74.3359 52.5586C72.6171 52.2461 71.9726 52.207 71.621 52.3633C71.3476 52.4805 70.6835 53.3594 70 54.5312C69.375 55.625 68.7695 56.5039 68.6914 56.4844C68.496 56.4648 65.625 50.4687 65.625 50.0976C65.625 49.9609 66.0156 49.8047 66.5039 49.7461C68.4179 49.4726 69.7656 48.4375 71.4062 45.8984C72.0312 44.9414 72.6171 44.1406 72.6757 44.1406C72.7343 44.1406 73.6718 46.0742 74.7851 48.457Z" fill="#1763A2"/>
<path d="M55.2734 10.7617C50.0781 12.1094 46.0547 15.9375 44.3555 21.0742C42.4023 27.0117 44.4922 33.8281 49.4727 37.793C55.1367 42.3047 63.0664 42.2852 68.7891 37.7149C71.2695 35.7617 73.125 32.8906 74.043 29.5899C74.6289 27.4805 74.6484 24.0235 74.0625 21.8555C72.5977 16.3867 68.3008 12.1485 62.8125 10.7422C60.7227 10.2149 57.3242 10.2149 55.2734 10.7617ZM62.0898 13.7696C64.5313 14.3555 67.0117 15.9961 68.7695 18.1641C70.5078 20.3321 71.3477 22.7149 71.3672 25.586C71.3867 27.8711 71.0938 29.1016 70.0586 31.25C68.4961 34.4727 65.1758 37.0508 61.6211 37.793C55.3711 39.1016 49.2188 35.4297 47.2656 29.1992C46.7188 27.461 46.6602 24.4922 47.1289 22.7149C48.2617 18.418 51.9141 14.7656 56.0938 13.75C57.5195 13.418 60.5859 13.418 62.0898 13.7696Z" fill="#1763A2"/>
<path d="M64.0625 18.2813C63.6914 18.4376 62.0117 19.922 60.3125 21.6407L57.2266 24.7071L56.0156 23.4962C54.1797 21.6993 52.9102 21.3087 51.2695 22.0509C49.7852 22.7149 48.8477 24.3946 49.1406 25.879C49.1992 26.2501 49.5117 26.9337 49.8242 27.4024C50.5469 28.4962 54.8047 32.6563 55.625 33.086C56.4453 33.5157 57.9688 33.5352 58.8477 33.1055C59.2188 32.9298 61.5039 30.7813 63.9453 28.3399C69.2773 22.9493 69.707 22.2266 68.7695 20.2149C67.8711 18.2813 65.918 17.4805 64.0625 18.2813ZM65.957 21.4063C66.0352 21.6212 64.8633 22.9298 61.7969 25.9962C59.4531 28.3399 57.3828 30.2735 57.2266 30.2735C57.0703 30.2735 55.8398 29.1993 54.5313 27.8712C52.7539 26.0938 52.168 25.3712 52.2656 25.1368C52.3242 24.961 52.4805 24.8048 52.5977 24.8048C52.6953 24.8048 53.6523 25.6446 54.707 26.6602C57.4219 29.297 57.0117 29.3946 61.6016 24.8048C63.6523 22.7735 65.4492 21.0938 65.5859 21.0938C65.7227 21.0938 65.8789 21.2305 65.957 21.4063Z" fill="#1763A2"/>
<path d="M37.207 59.3946C34.7461 59.6289 33.4375 60.2344 25.2734 64.961C22.0508 66.836 19.2969 68.3594 19.1992 68.3594C19.082 68.3594 18.7695 67.9883 18.4961 67.5196C17.2851 65.4688 15.3125 64.7266 13.3594 65.6055C12.1094 66.1719 8.35935 68.3594 7.83201 68.8281C6.77732 69.7656 6.36717 71.6211 6.91404 72.9297C7.49998 74.3555 20.2148 96.6211 20.7617 97.2071C21.5429 98.0469 22.7929 98.5156 23.9062 98.3985C25.039 98.2617 29.9219 95.5664 30.8008 94.5899C31.4844 93.8477 31.8359 92.8906 31.8359 91.8555C31.8359 91.4844 31.4453 90.4688 30.8398 89.3555C30.2929 88.3203 29.8828 87.4414 29.9219 87.4024C29.9609 87.3828 30.4883 87.0703 31.1328 86.7188L32.2656 86.0742L33.4765 86.3672C34.1211 86.5235 38.8476 87.793 43.9453 89.1602C52.2851 91.4063 53.4179 91.6797 55.1758 91.7578C57.539 91.8555 59.1797 91.5039 61.0742 90.5469C63.3593 89.3946 90.8398 72.3633 91.5625 71.6602C92.7148 70.5469 93.2422 69.1211 93.2617 67.1875C93.2617 65.6836 93.2031 65.3906 92.6172 64.2188C90.8398 60.6055 86.5234 59.8633 81.3476 62.2852C80.4883 62.6953 75.957 65.2344 71.289 67.9688C63.789 72.3242 61.7968 73.4375 61.4453 73.4375C61.3867 73.4375 61.4843 73.1055 61.6601 72.6953C61.8554 72.2852 61.9922 71.4063 61.9922 70.6055C62.0117 68.2227 60.625 66.0547 58.4765 65.0977C57.9492 64.8633 56.4648 64.4336 55.1758 64.1602C52.832 63.6133 50.0195 62.7344 43.75 60.586C40.2148 59.375 39.2187 59.1797 37.207 59.3946ZM44.3164 64.0625C49.3164 65.8203 51.4258 66.4649 54.4726 67.2071C57.2265 67.8711 57.8125 68.125 58.3594 68.9063C59.3359 70.2539 58.9258 72.2656 57.5586 72.9102C56.2695 73.5352 54.8633 73.3008 48.0664 71.3867C46.1719 70.8594 44.6484 70.5274 44.3945 70.6055C43.7109 70.7617 43.164 71.4063 43.164 72.0508C43.164 73.1836 43.5742 73.3985 48.0469 74.6289C57.6367 77.2852 60.5664 77.461 64.2968 75.586C64.9023 75.2735 68.8476 73.0078 73.0859 70.5274C77.3047 68.0664 81.3867 65.7422 82.1289 65.3711C86.6406 63.1055 89.9414 63.711 90.1757 66.836C90.2343 67.6367 90.1562 68.0664 89.8047 68.7305C89.375 69.5508 88.6523 70.0196 74.375 78.8086C63.0859 85.7617 59.1211 88.1055 58.2617 88.3399C55.7812 89.043 55.2148 88.9453 43.2617 85.7422C37.2461 84.1211 32.1679 82.8125 31.9531 82.8125C31.7383 82.8125 30.8984 83.2227 30.0586 83.711C29.1992 84.1992 28.4179 84.5703 28.3008 84.5313C28.125 84.4727 20.7031 71.543 20.7031 71.2891C20.7226 71.0938 33.7695 63.6524 34.9609 63.1641C36.4062 62.5781 38.0078 62.3438 39.3554 62.5196C39.9023 62.5977 42.1289 63.2813 44.3164 64.0625ZM15.3515 68.5156C15.5469 68.6328 28.0664 90.6446 28.5547 91.6992C28.7109 92.0508 28.7109 92.2461 28.5351 92.461C28.0859 92.9883 23.6523 95.3516 23.3008 95.2344C22.9687 95.1172 10.0586 72.5586 9.8242 71.7188C9.70701 71.2696 9.96092 71.0742 12.4804 69.6094C14.5508 68.3985 14.9609 68.2422 15.3515 68.5156Z" fill="#1763A2"/>
<path d="M13.0273 71.2891C12.3828 71.7969 12.2265 72.5196 12.5781 73.2227C13.3398 74.6875 15.4296 74.0821 15.4296 72.4219C15.4296 71.1328 14.0624 70.4883 13.0273 71.2891Z" fill="#1763A2"/>
</svg>
