<svg width="18" height="16" viewBox="0 0 18 16" fill="none" xmlns="http://www.w3.org/2000/svg">
<path fill-rule="evenodd" clip-rule="evenodd" d="M16.132 0.10818C17.1061 -0.30468 18.1503 0.524456 17.9783 1.57419L15.9468 13.9732C15.7509 15.1687 14.4466 15.8546 13.357 15.2589C12.4453 14.7604 11.0926 13.9931 9.87351 13.1912C9.26476 12.7907 7.40073 11.5067 7.62985 10.5927C7.82575 9.81122 10.9594 6.87486 12.7501 5.12858C13.4535 4.44263 13.1331 4.04635 12.3024 4.67793C10.2417 6.24467 6.93319 8.62672 5.83911 9.29711C4.8738 9.88855 4.36979 9.98949 3.76861 9.88855C2.67079 9.70441 1.65299 9.41924 0.82203 9.07251C-0.30107 8.60383 -0.246364 7.05016 0.821269 6.59771L16.132 0.10818Z" fill="white"/>
</svg>
