<svg width="18" height="18" viewBox="0 0 18 18" fill="none" xmlns="http://www.w3.org/2000/svg">
<path d="M9 1.5C4.875 1.5 1.5 4.875 1.5 9C1.5 13.125 4.875 16.5 9 16.5C13.125 16.5 16.5 13.125 16.5 9C16.5 4.875 13.125 1.5 9 1.5Z" fill="white"/>
<path d="M9.44999 12.45C6.07499 12.45 4.16249 10.1625 4.08749 6.30005H5.77499C5.81249 9.11255 7.08749 10.3125 8.06249 10.5375V6.30005H9.63749V8.73755C10.6125 8.62505 11.625 7.53755 11.9625 6.30005H13.5375C13.275 7.80005 12.15 8.92505 11.3625 9.37505C12.15 9.75005 13.425 10.725 13.875 12.45H12.1125C11.7375 11.2875 10.8 10.3875 9.56249 10.2375V12.45H9.44999Z" fill="#1763A2"/>
</svg>
