<svg width="18" height="15" viewBox="0 0 18 15" fill="none" xmlns="http://www.w3.org/2000/svg">
<path fill-rule="evenodd" clip-rule="evenodd" d="M8.99852 0C9.76827 0 10.5567 0.0201735 11.3216 0.0519816L12.2255 0.0951894L13.0906 0.146288L13.9005 0.201997L14.6392 0.25904C16.2932 0.393253 17.6223 1.6732 17.784 3.33943L17.8198 3.72145L17.8873 4.54027C17.9504 5.38903 17.997 6.31456 17.997 7.19881C17.997 8.08307 17.9504 9.00859 17.8873 9.85736L17.8198 10.6762C17.808 10.8069 17.7961 10.9344 17.784 11.0582C17.6223 12.7244 16.2932 14.0044 14.6392 14.1386L13.9005 14.1956L13.0906 14.2513L12.2255 14.3024L11.3216 14.3456C10.5567 14.3774 9.76827 14.3976 8.99852 14.3976C8.22878 14.3976 7.44032 14.3774 6.67541 14.3456L5.77152 14.3024L4.90647 14.2513L4.09649 14.1956L3.3578 14.1386C1.70388 14.0044 0.374698 12.7244 0.212977 11.0582L0.1772 10.6762L0.109713 9.85736C0.0466083 9.00859 0 8.08307 0 7.19881C0 6.31456 0.0466083 5.38903 0.109713 4.54027L0.1772 3.72145C0.188993 3.5907 0.200965 3.46318 0.212977 3.33943C0.374698 1.6732 1.70388 0.393253 3.3578 0.25904L4.09648 0.201997L4.90647 0.146288L5.77152 0.0951894L6.6754 0.0519816C7.44031 0.0201735 8.22877 0 8.99852 0ZM7.19881 5.01679V9.38086C7.19881 9.7965 7.64874 10.0562 8.00868 9.84842L11.7881 7.66637C12.148 7.4586 12.148 6.93902 11.7881 6.73125L8.00868 4.54921C7.64874 4.3414 7.19881 4.60117 7.19881 5.01679Z" fill="white"/>
</svg>
